<svg
  className="w-6 h-6"
  viewBox="0 0 32 32"
  fill="currentColor"
  xmlns="http://www.w3.org/2000/svg"
>
  <path
    d="M16 22.6666C14.3778 22.6666 12.9609 22.1613 11.7494 21.1506C10.5387 20.1391 9.7778 18.8666 9.46669 17.3333H2.66669V14.6666H9.46669C9.7778 13.1333 10.5387 11.8609 11.7494 10.8493C12.9609 9.83865 14.3778 9.33331 16 9.33331C17.6222 9.33331 19.0391 9.83865 20.2507 10.8493C21.4614 11.8609 22.2222 13.1333 22.5334 14.6666H29.3334V17.3333H22.5334C22.2222 18.8666 21.4614 20.1391 20.2507 21.1506C19.0391 22.1613 17.6222 22.6666 16 22.6666ZM16 20C17.1111 20 18.0556 19.6111 18.8334 18.8333C19.6111 18.0555 20 17.1111 20 16C20 14.8889 19.6111 13.9444 18.8334 13.1666C18.0556 12.3889 17.1111 12 16 12C14.8889 12 13.9445 12.3889 13.1667 13.1666C12.3889 13.9444 12 14.8889 12 16C12 17.1111 12.3889 18.0555 13.1667 18.8333C13.9445 19.6111 14.8889 20 16 20Z" />
</svg>