<svg
	className="w-6 h-6"
	viewBox="0 0 32 32"
	fill="none"
	strokeWidth="2"
	stroke="currentColor"
	xmlns="http://www.w3.org/2000/svg"
>
	<path
		d="M9.33331 24V22.6667C9.33331 20.8986 10.0357 19.2029 11.2859 17.9526C12.5362 16.7024 14.2319 16 16 16M16 16C17.7681 16 19.4638 16.7024 20.714 17.9526C21.9643 19.2029 22.6666 20.8986 22.6666 22.6667V24M16 16C17.0608 16 18.0783 15.5786 18.8284 14.8284C19.5786 14.0783 20 13.0609 20 12C20 10.9391 19.5786 9.92172 18.8284 9.17157C18.0783 8.42143 17.0608 8 16 8C14.9391 8 13.9217 8.42143 13.1716 9.17157C12.4214 9.92172 12 10.9391 12 12C12 13.0609 12.4214 14.0783 13.1716 14.8284C13.9217 15.5786 14.9391 16 16 16ZM1.33331 24V22.6667C1.33331 21.6058 1.75474 20.5884 2.50489 19.8382C3.25503 19.0881 4.27245 18.6667 5.33331 18.6667M5.33331 18.6667C6.04056 18.6667 6.71883 18.3857 7.21893 17.8856C7.71903 17.3855 7.99998 16.7072 7.99998 16C7.99998 15.2928 7.71903 14.6145 7.21893 14.1144C6.71883 13.6143 6.04056 13.3333 5.33331 13.3333C4.62607 13.3333 3.94779 13.6143 3.44769 14.1144C2.9476 14.6145 2.66665 15.2928 2.66665 16C2.66665 16.7072 2.9476 17.3855 3.44769 17.8856C3.94779 18.3857 4.62607 18.6667 5.33331 18.6667ZM30.6666 24V22.6667C30.6666 21.6058 30.2452 20.5884 29.4951 19.8382C28.7449 19.0881 27.7275 18.6667 26.6666 18.6667M26.6666 18.6667C27.3739 18.6667 28.0522 18.3857 28.5523 17.8856C29.0524 17.3855 29.3333 16.7072 29.3333 16C29.3333 15.2928 29.0524 14.6145 28.5523 14.1144C28.0522 13.6143 27.3739 13.3333 26.6666 13.3333C25.9594 13.3333 25.2811 13.6143 24.781 14.1144C24.2809 14.6145 24 15.2928 24 16C24 16.7072 24.2809 17.3855 24.781 17.8856C25.2811 18.3857 25.9594 18.6667 26.6666 18.6667Z"
		strokeLinecap="round"
		strokeLinejoin="round"
	/>
</svg>