<?xml version="1.0" encoding="UTF-8"?>
<!-- Ce fichier est généré par npm run build:icons -->
<svg xmlns="http://www.w3.org/2000/svg" xmlns:xlink="http://www.w3.org/1999/xlink" width="0" height="0">
<defs>
<symbol viewBox="0 0 15 15" fill="none" id="arrow-right">
  <path 
    fill-rule="evenodd"
    clip-rule="evenodd"
    d="M8.14645 3.14645C8.34171 2.95118 8.65829 2.95118 8.85355 3.14645L12.8536 7.14645C13.0488 7.34171 13.0488 7.65829 12.8536 7.85355L8.85355 11.8536C8.65829 12.0488 8.34171 12.0488 8.14645 11.8536C7.95118 11.6583 7.95118 11.3417 8.14645 11.1464L11.2929 8H2.5C2.22386 8 2 7.77614 2 7.5C2 7.22386 2.22386 7 2.5 7H11.2929L8.14645 3.85355C7.95118 3.65829 7.95118 3.34171 8.14645 3.14645Z"
    fill="currentColor"
  ></path>
</symbol>
<symbol viewBox="0 0 15 15" fill="none" id="caret-sort">
  <path 
    fill-rule="evenodd"
    clip-rule="evenodd"
    d="M4.93179 5.43179C4.75605 5.60753 4.75605 5.89245 4.93179 6.06819C5.10753 6.24392 5.39245 6.24392 5.56819 6.06819L7.49999 4.13638L9.43179 6.06819C9.60753 6.24392 9.89245 6.24392 10.0682 6.06819C10.2439 5.89245 10.2439 5.60753 10.0682 5.43179L7.81819 3.18179C7.73379 3.0974 7.61933 3.04999 7.49999 3.04999C7.38064 3.04999 7.26618 3.0974 7.18179 3.18179L4.93179 5.43179ZM10.0682 9.56819C10.2439 9.39245 10.2439 9.10753 10.0682 8.93179C9.89245 8.75606 9.60753 8.75606 9.43179 8.93179L7.49999 10.8636L5.56819 8.93179C5.39245 8.75606 5.10753 8.75606 4.93179 8.93179C4.75605 9.10753 4.75605 9.39245 4.93179 9.56819L7.18179 11.8182C7.35753 11.9939 7.64245 11.9939 7.81819 11.8182L10.0682 9.56819Z"
    fill="currentColor"
  ></path>
</symbol>
<symbol viewBox="0 0 15 15" fill="none" id="check">
  <path 
    fill-rule="evenodd"
    clip-rule="evenodd"
    d="M11.4669 3.72684C11.7558 3.91574 11.8369 4.30308 11.648 4.59198L7.39799 11.092C7.29783 11.2452 7.13556 11.3467 6.95402 11.3699C6.77247 11.3931 6.58989 11.3355 6.45446 11.2124L3.70446 8.71241C3.44905 8.48022 3.43023 8.08494 3.66242 7.82953C3.89461 7.57412 4.28989 7.55529 4.5453 7.78749L6.75292 9.79441L10.6018 3.90792C10.7907 3.61902 11.178 3.53795 11.4669 3.72684Z"
    fill="currentColor"
  ></path>
</symbol>
<symbol viewBox="0 0 24 24" fill="none" stroke="currentColor" strokeWidth="2" strokeLinecap="round" strokeLinejoin="round" class="lucide lucide-circle-arrow-left" id="circle-arrow-left">
  <circle cx="12" cy="12" r="10"></circle>
  <path d="M16 12H8"></path><path d="m12 8-4 4 4 4"></path>
</symbol>
<symbol className="w-6 h-6" viewBox="0 0 32 32" fill="currentColor" id="commit-icon">
  <path 
    d="M16 22.6666C14.3778 22.6666 12.9609 22.1613 11.7494 21.1506C10.5387 20.1391 9.7778 18.8666 9.46669 17.3333H2.66669V14.6666H9.46669C9.7778 13.1333 10.5387 11.8609 11.7494 10.8493C12.9609 9.83865 14.3778 9.33331 16 9.33331C17.6222 9.33331 19.0391 9.83865 20.2507 10.8493C21.4614 11.8609 22.2222 13.1333 22.5334 14.6666H29.3334V17.3333H22.5334C22.2222 18.8666 21.4614 20.1391 20.2507 21.1506C19.0391 22.1613 17.6222 22.6666 16 22.6666ZM16 20C17.1111 20 18.0556 19.6111 18.8334 18.8333C19.6111 18.0555 20 17.1111 20 16C20 14.8889 19.6111 13.9444 18.8334 13.1666C18.0556 12.3889 17.1111 12 16 12C14.8889 12 13.9445 12.3889 13.1667 13.1666C12.3889 13.9444 12 14.8889 12 16C12 17.1111 12.3889 18.0555 13.1667 18.8333C13.9445 19.6111 14.8889 20 16 20Z" ></path>
</symbol>
<symbol viewBox="0 0 15 15" fill="none" id="cross-1">
  <path 
    fill-rule="evenodd"
    clip-rule="evenodd"
    d="M12.8536 2.85355C13.0488 2.65829 13.0488 2.34171 12.8536 2.14645C12.6583 1.95118 12.3417 1.95118 12.1464 2.14645L7.5 6.79289L2.85355 2.14645C2.65829 1.95118 2.34171 1.95118 2.14645 2.14645C1.95118 2.34171 1.95118 2.65829 2.14645 2.85355L6.79289 7.5L2.14645 12.1464C1.95118 12.3417 1.95118 12.6583 2.14645 12.8536C2.34171 13.0488 2.65829 13.0488 2.85355 12.8536L7.5 8.20711L12.1464 12.8536C12.3417 13.0488 12.6583 13.0488 12.8536 12.8536C13.0488 12.6583 13.0488 12.3417 12.8536 12.1464L8.20711 7.5L12.8536 2.85355Z"
    fill="currentColor"
  ></path>
</symbol>
<symbol viewBox="0 -28.5 256 256" className="w-6 h-6" fill="#5865F2" aria-hidden="true" id="discord">
  <g>
    <path 
      d="M216.856339,16.5966031 C200.285002,8.84328665 182.566144,3.2084988 164.041564,0 C161.766523,4.11318106 159.108624,9.64549908 157.276099,14.0464379 C137.583995,11.0849896 118.072967,11.0849896 98.7430163,14.0464379 C96.9108417,9.64549908 94.1925838,4.11318106 91.8971895,0 C73.3526068,3.2084988 55.6133949,8.86399117 39.0420583,16.6376612 C5.61752293,67.146514 -3.4433191,116.400813 1.08711069,164.955721 C23.2560196,181.510915 44.7403634,191.567697 65.8621325,198.148576 C71.0772151,190.971126 75.7283628,183.341335 79.7352139,175.300261 C72.104019,172.400575 64.7949724,168.822202 57.8887866,164.667963 C59.7209612,163.310589 61.5131304,161.891452 63.2445898,160.431257 C105.36741,180.133187 151.134928,180.133187 192.754523,160.431257 C194.506336,161.891452 196.298154,163.310589 198.110326,164.667963 C191.183787,168.842556 183.854737,172.420929 176.223542,175.320965 C180.230393,183.341335 184.861538,190.991831 190.096624,198.16893 C211.238746,191.588051 232.743023,181.531619 254.911949,164.955721 C260.227747,108.668201 245.831087,59.8662432 216.856339,16.5966031 Z M85.4738752,135.09489 C72.8290281,135.09489 62.4592217,123.290155 62.4592217,108.914901 C62.4592217,94.5396472 72.607595,82.7145587 85.4738752,82.7145587 C98.3405064,82.7145587 108.709962,94.5189427 108.488529,108.914901 C108.508531,123.290155 98.3405064,135.09489 85.4738752,135.09489 Z M170.525237,135.09489 C157.88039,135.09489 147.510584,123.290155 147.510584,108.914901 C147.510584,94.5396472 157.658606,82.7145587 170.525237,82.7145587 C183.391518,82.7145587 193.761324,94.5189427 193.539891,108.914901 C193.539891,123.290155 183.391518,135.09489 170.525237,135.09489 Z"
      fill="#5865F2"
      fillRule="nonzero"
    ></path>
  </g>
</symbol>
<symbol className="w-6 h-6" fill="#4267B2" viewBox="0 0 24 24" aria-hidden="true" id="facebook">
  <path 
    d="M12 0c-6.627 0-12 5.373-12 12s5.373 12 12 12 12-5.373 12-12-5.373-12-12-12zm3 8h-1.35c-.538 0-.65.221-.65.778v1.222h2l-.209 2h-1.791v7h-3v-7h-2v-2h2v-2.308c0-1.769.931-2.692 3.029-2.692h1.971v3z" ></path>
</symbol>
<symbol className="w-9 h-9" viewBox="0 0 52 52" fill="none" id="galsen-dev-logo">
  <g clipPath="url(#clip0_119_120)">
    <circle 
      cx="26"
      cy="26"
      r="25"
      fill="url(#paint0_linear_119_120)"
      stroke="white"
      strokeWidth="2"
    ></circle>
    <path 
      d="M32.3991 10.1016C33.1716 10.4006 33.5555 11.2693 33.2564 12.0419L22.3394 40.2442C22.0404 41.0168 21.1716 41.4006 20.3991 41.1016C19.6265 40.8025 19.2427 39.9338 19.5417 39.1612L30.4587 10.9589C30.7578 10.1863 31.6265 9.80249 32.3991 10.1016Z"
      fill="white"
    ></path>
    <path 
      d="M6.70915 25.06L17.7092 16.56C19.4806 15.6743 21.2087 17.56 19.2092 19.0601C18.3965 19.6698 16.6424 21.0714 14.8152 22.5314C12.8268 24.1202 10.7517 25.7783 9.70945 26.56C11.7095 28.06 19.7092 34.5601 19.7092 34.5601C21.2087 36.06 19.4762 37.9735 17.7092 36.5601C16.6909 35.7457 15.1754 34.5996 13.5338 33.3582C11.1442 31.5511 8.48747 29.542 6.70915 28.0601C5.81973 27.318 5.70911 26.06 6.70915 25.06Z"
      fill="white"
    ></path>
    <path 
      d="M34.5714 16.56L45.5714 25.06C46.5714 26.06 46.4608 27.318 45.5714 28.0601C43.7931 29.542 41.1365 31.551 38.7469 33.3581C37.1052 34.5995 35.5896 35.7457 34.5714 36.5601C32.8044 37.9735 31.0718 36.06 32.5714 34.5601C32.5714 34.5601 40.5711 28.06 42.5711 26.56C41.5288 25.7783 39.4538 24.1203 37.4653 22.5314C35.6381 21.0714 33.884 19.6698 33.0714 19.0601C31.0718 17.56 32.7999 15.6743 34.5714 16.56Z"
      fill="white"
    ></path>
  </g>
  <defs>
    <linearGradient 
      id="paint0_linear_119_120"
      x1="1.31288e-07"
      y1="29"
      x2="67"
      y2="26"
      gradientUnits="userSpaceOnUse"
    >
      <stop stop-color="#4986FF" ></stop>
      <stop offset="1" stop-color="#0C48AE" ></stop>
    </linearGradient>
    <clipPath id="clip0_119_120">
      <rect width="52" height="52" fill="white" ></rect>
    </clipPath>
  </defs>
</symbol>
<symbol className="w-6 h-6" fill="#000000" viewBox="0 0 24 24" aria-hidden="true" id="github">
  <path 
    fillRule="evenodd"
    d="M12 2C6.477 2 2 6.484 2 12.017c0 4.425 2.865 8.18 6.839 9.504.5.092.682-.217.682-.483 0-.237-.008-.868-.013-1.703-2.782.605-3.369-1.343-3.369-1.343-.454-1.158-1.11-1.466-1.11-1.466-.908-.62.069-.608.069-.608 1.003.07 1.531 1.032 1.531 1.032.892 1.53 2.341 1.088 2.91.832.092-.647.35-1.088.636-1.338-2.22-.253-4.555-1.113-4.555-4.951 0-1.093.39-1.988 1.029-2.688-.103-.253-.446-1.272.098-2.65 0 0 .84-.27 2.75 1.026A9.564 9.564 0 0112 6.844c.85.004 1.705.115 2.504.337 1.909-1.296 2.747-1.027 2.747-1.027.546 1.379.202 2.398.1 2.651.64.7 1.028 1.595 1.028 2.688 0 3.848-2.339 4.695-4.566 4.943.359.309.678.92.678 1.855 0 1.338-.012 2.419-.012 2.747 0 .268.18.58.688.482A10.019 10.019 0 0022 12.017C22 6.484 17.522 2 12 2z"
    clipRule="evenodd"
  ></path>
</symbol>
<symbol viewBox="0 0 15 15" fill="none" id="hamburger-menu">
  <path 
    fill-rule="evenodd"
    clip-rule="evenodd"
    d="M1.5 3C1.22386 3 1 3.22386 1 3.5C1 3.77614 1.22386 4 1.5 4H13.5C13.7761 4 14 3.77614 14 3.5C14 3.22386 13.7761 3 13.5 3H1.5ZM1 7.5C1 7.22386 1.22386 7 1.5 7H13.5C13.7761 7 14 7.22386 14 7.5C14 7.77614 13.7761 8 13.5 8H1.5C1.22386 8 1 7.77614 1 7.5ZM1 11.5C1 11.2239 1.22386 11 1.5 11H13.5C13.7761 11 14 11.2239 14 11.5C14 11.7761 13.7761 12 13.5 12H1.5C1.22386 12 1 11.7761 1 11.5Z"
    fill="currentColor"
  ></path>
</symbol>
<symbol viewBox="0 0 24 24" fill="none" stroke="currentColor" className="w-5 h-5" aria-hidden="true" id="i18n">
	<path d="m5 8 6 6" ></path>
	<path d="m4 14 6-6 2-3" ></path>
	<path d="M2 5h12" ></path>
	<path d="M7 2h1" ></path>
	<path d="m22 22-5-10-5 10" ></path>
	<path d="M14 18h6" ></path>
</symbol>
<symbol className="w-6 h-6" fill="#E1306C" viewBox="0 0 24 24" aria-hidden="true" id="instagram">
  <path 
    d="M12 2.163c3.204 0 3.584.012 4.85.07 3.252.148 4.771 1.691 4.919 4.919.058 1.265.069 1.645.069 4.849 0 3.205-.012 3.584-.069 4.849-.149 3.225-1.664 4.771-4.919 4.919-1.266.058-1.644.07-4.85.07-3.204 0-3.584-.012-4.849-.07-3.26-.149-4.771-1.699-4.919-4.92-.058-1.265-.07-1.644-.07-4.849 0-3.204.013-3.583.07-4.849.149-3.227 1.664-4.771 4.919-4.919 1.266-.057 1.645-.069 4.849-.069zm0-2.163c-3.259 0-3.667.014-4.947.072-4.358.2-6.78 2.618-6.98 6.98-.059 1.281-.073 1.689-.073 4.948 0 3.259.014 3.668.072 4.948.2 4.358 2.618 6.78 6.98 6.98 1.281.058 1.689.072 4.948.072 3.259 0 3.668-.014 4.948-.072 4.354-.2 6.782-2.618 6.979-6.98.059-1.28.073-1.689.073-4.948 0-3.259-.014-3.667-.072-4.947-.196-4.354-2.617-6.78-6.979-6.98-1.281-.059-1.69-.073-4.949-.073zm0 5.838c-3.403 0-6.162 2.759-6.162 6.162s2.759 6.163 6.162 6.163 6.162-2.759 6.162-6.163c0-3.403-2.759-6.162-6.162-6.162zm0 10.162c-2.209 0-4-1.79-4-4 0-2.209 1.791-4 4-4s4 1.791 4 4c0 2.21-1.791 4-4 4zm6.406-11.845c-.796 0-1.441.645-1.441 1.44s.645 1.44 1.441 1.44c.795 0 1.439-.645 1.439-1.44s-.644-1.44-1.439-1.44z" ></path>
</symbol>
<symbol viewBox="0 0 32 32" fill="currentColor" id="location">
  <path 
    d="M16 2C13.0837 2.00344 10.2878 3.16347 8.22564 5.22563C6.16348 7.28778 5.00345 10.0837 5.00001 13C4.99652 15.3832 5.77499 17.7018 7.21601 19.6C7.21601 19.6 7.51601 19.995 7.56501 20.052L16 30L24.439 20.047C24.483 19.994 24.784 19.6 24.784 19.6L24.785 19.597C26.2253 17.6996 27.0034 15.3821 27 13C26.9966 10.0837 25.8365 7.28778 23.7744 5.22563C21.7122 3.16347 18.9163 2.00344 16 2ZM16 17C15.2089 17 14.4355 16.7654 13.7777 16.3259C13.1199 15.8864 12.6072 15.2616 12.3045 14.5307C12.0017 13.7998 11.9225 12.9956 12.0769 12.2196C12.2312 11.4437 12.6122 10.731 13.1716 10.1716C13.731 9.61216 14.4437 9.2312 15.2197 9.07686C15.9956 8.92252 16.7998 9.00173 17.5307 9.30448C18.2616 9.60723 18.8864 10.1199 19.3259 10.7777C19.7654 11.4355 20 12.2089 20 13C19.9987 14.0605 19.5768 15.0771 18.827 15.827C18.0771 16.5768 17.0605 16.9987 16 17Z" ></path>
</symbol>
<symbol fill="none" viewBox="0 0 24 24" strokeWidth="2" stroke="currentColor" className="w-6 h-6" id="mega-phone">
  <path 
    strokeLinecap="round"
    strokeLinejoin="round"
    d="M10.34 15.84c-.688-.06-1.386-.09-2.09-.09H7.5a4.5 4.5 0 110-9h.75c.704 0 1.402-.03 2.09-.09m0 9.18c.253.962.584 1.892.985 2.783.247.55.06 1.21-.463 1.511l-.657.38c-.551.318-1.26.117-1.527-.461a20.845 20.845 0 01-1.44-4.282m3.102.069a18.03 18.03 0 01-.59-4.59c0-1.586.205-3.124.59-4.59m0 9.18a23.848 23.848 0 018.835 2.535M10.34 6.66a23.847 23.847 0 008.835-2.535m0 0A23.74 23.74 0 0018.795 3m.38 1.125a23.91 23.91 0 011.014 5.395m-1.014 8.855c-.118.38-.245.754-.38 1.125m.38-1.125a23.91 23.91 0 001.014-5.395m0-3.46c.495.413.811 1.035.811 1.73 0 .695-.316 1.317-.811 1.73m0-3.46a24.347 24.347 0 010 3.46"
  ></path>
</symbol>
<symbol className="w-6 h-6" viewBox="0 0 32 32" fill="none" strokeWidth="2" stroke="currentColor" id="members-icon">
	<path 
		d="M9.33331 24V22.6667C9.33331 20.8986 10.0357 19.2029 11.2859 17.9526C12.5362 16.7024 14.2319 16 16 16M16 16C17.7681 16 19.4638 16.7024 20.714 17.9526C21.9643 19.2029 22.6666 20.8986 22.6666 22.6667V24M16 16C17.0608 16 18.0783 15.5786 18.8284 14.8284C19.5786 14.0783 20 13.0609 20 12C20 10.9391 19.5786 9.92172 18.8284 9.17157C18.0783 8.42143 17.0608 8 16 8C14.9391 8 13.9217 8.42143 13.1716 9.17157C12.4214 9.92172 12 10.9391 12 12C12 13.0609 12.4214 14.0783 13.1716 14.8284C13.9217 15.5786 14.9391 16 16 16ZM1.33331 24V22.6667C1.33331 21.6058 1.75474 20.5884 2.50489 19.8382C3.25503 19.0881 4.27245 18.6667 5.33331 18.6667M5.33331 18.6667C6.04056 18.6667 6.71883 18.3857 7.21893 17.8856C7.71903 17.3855 7.99998 16.7072 7.99998 16C7.99998 15.2928 7.71903 14.6145 7.21893 14.1144C6.71883 13.6143 6.04056 13.3333 5.33331 13.3333C4.62607 13.3333 3.94779 13.6143 3.44769 14.1144C2.9476 14.6145 2.66665 15.2928 2.66665 16C2.66665 16.7072 2.9476 17.3855 3.44769 17.8856C3.94779 18.3857 4.62607 18.6667 5.33331 18.6667ZM30.6666 24V22.6667C30.6666 21.6058 30.2452 20.5884 29.4951 19.8382C28.7449 19.0881 27.7275 18.6667 26.6666 18.6667M26.6666 18.6667C27.3739 18.6667 28.0522 18.3857 28.5523 17.8856C29.0524 17.3855 29.3333 16.7072 29.3333 16C29.3333 15.2928 29.0524 14.6145 28.5523 14.1144C28.0522 13.6143 27.3739 13.3333 26.6666 13.3333C25.9594 13.3333 25.2811 13.6143 24.781 14.1144C24.2809 14.6145 24 15.2928 24 16C24 16.7072 24.2809 17.3855 24.781 17.8856C25.2811 18.3857 25.9594 18.6667 26.6666 18.6667Z"
		strokeLinecap="round"
		strokeLinejoin="round"
	></path>
</symbol>
<symbol className="w-6 h-6" fill="#0088CC" viewBox="0 0 256 256" aria-hidden="true" id="telegram">
  <path 
    d="M128 0C94.06 0 61.48 13.494 37.5 37.49A128.038 128.038 0 0 0 0 128c0 33.934 13.5 66.514 37.5 90.51C61.48 242.506 94.06 256 128 256s66.52-13.494 90.5-37.49c24-23.996 37.5-56.576 37.5-90.51c0-33.934-13.5-66.514-37.5-90.51C194.52 13.494 161.94 0 128 0Z"></path>
  <path 
    fill="#FFF"
    d="M57.94 126.648c37.32-16.256 62.2-26.974 74.64-32.152c35.56-14.786 42.94-17.354 47.76-17.441c1.06-.017 3.42.245 4.96 1.49c1.28 1.05 1.64 2.47 1.82 3.467c.16.996.38 3.266.2 5.038c-1.92 20.24-10.26 69.356-14.5 92.026c-1.78 9.592-5.32 12.808-8.74 13.122c-7.44.684-13.08-4.912-20.28-9.63c-11.26-7.386-17.62-11.982-28.56-19.188c-12.64-8.328-4.44-12.906 2.76-20.386c1.88-1.958 34.64-31.748 35.26-34.45c.08-.338.16-1.598-.6-2.262c-.74-.666-1.84-.438-2.64-.258c-1.14.256-19.12 12.152-54 35.686c-5.1 3.508-9.72 5.218-13.88 5.128c-4.56-.098-13.36-2.584-19.9-4.708c-8-2.606-14.38-3.984-13.82-8.41c.28-2.304 3.46-4.662 9.52-7.072Z"
  ></path>
</symbol>
<symbol className="w-6 h-6" fill="#1DA1F2" viewBox="0 0 24 24" aria-hidden="true" id="twitter">
  <path 
    d="M8.29 20.251c7.547 0 11.675-6.253 11.675-11.675 0-.178 0-.355-.012-.53A8.348 8.348 0 0022 5.92a8.19 8.19 0 01-2.357.646 4.118 4.118 0 001.804-2.27 8.224 8.224 0 01-2.605.996 4.107 4.107 0 00-6.993 3.743 11.65 11.65 0 01-8.457-4.287 4.106 4.106 0 001.27 5.477A4.072 4.072 0 012.8 9.713v.052a4.105 4.105 0 003.292 4.022 4.095 4.095 0 01-1.853.07 4.108 4.108 0 003.834 2.85A8.233 8.233 0 012 18.407a11.616 11.616 0 006.29 1.84" ></path>
</symbol>
<symbol x="0px" y="0px" viewBox="0 0 48 48" className="w-6 h-6" id="whatsapp">
  <path fill="#fff"
    d="M4.868,43.303l2.694-9.835C5.9,30.59,5.026,27.324,5.027,23.979C5.032,13.514,13.548,5,24.014,5c5.079,0.002,9.845,1.979,13.43,5.566c3.584,3.588,5.558,8.356,5.556,13.428c-0.004,10.465-8.522,18.98-18.986,18.98c-0.001,0,0,0,0,0h-0.008c-3.177-0.001-6.3-0.798-9.073-2.311L4.868,43.303z"></path>
  <path fill="#fff"
    d="M4.868,43.803c-0.132,0-0.26-0.052-0.355-0.148c-0.125-0.127-0.174-0.312-0.127-0.483l2.639-9.636c-1.636-2.906-2.499-6.206-2.497-9.556C4.532,13.238,13.273,4.5,24.014,4.5c5.21,0.002,10.105,2.031,13.784,5.713c3.679,3.683,5.704,8.577,5.702,13.781c-0.004,10.741-8.746,19.48-19.486,19.48c-3.189-0.001-6.344-0.788-9.144-2.277l-9.875,2.589C4.953,43.798,4.911,43.803,4.868,43.803z"></path>
  <path fill="#cfd8dc"
    d="M24.014,5c5.079,0.002,9.845,1.979,13.43,5.566c3.584,3.588,5.558,8.356,5.556,13.428c-0.004,10.465-8.522,18.98-18.986,18.98h-0.008c-3.177-0.001-6.3-0.798-9.073-2.311L4.868,43.303l2.694-9.835C5.9,30.59,5.026,27.324,5.027,23.979C5.032,13.514,13.548,5,24.014,5 M24.014,42.974C24.014,42.974,24.014,42.974,24.014,42.974C24.014,42.974,24.014,42.974,24.014,42.974 M24.014,42.974C24.014,42.974,24.014,42.974,24.014,42.974C24.014,42.974,24.014,42.974,24.014,42.974 M24.014,4C24.014,4,24.014,4,24.014,4C12.998,4,4.032,12.962,4.027,23.979c-0.001,3.367,0.849,6.685,2.461,9.622l-2.585,9.439c-0.094,0.345,0.002,0.713,0.254,0.967c0.19,0.192,0.447,0.297,0.711,0.297c0.085,0,0.17-0.011,0.254-0.033l9.687-2.54c2.828,1.468,5.998,2.243,9.197,2.244c11.024,0,19.99-8.963,19.995-19.98c0.002-5.339-2.075-10.359-5.848-14.135C34.378,6.083,29.357,4.002,24.014,4L24.014,4z"></path>
  <path fill="#40c351"
    d="M35.176,12.832c-2.98-2.982-6.941-4.625-11.157-4.626c-8.704,0-15.783,7.076-15.787,15.774c-0.001,2.981,0.833,5.883,2.413,8.396l0.376,0.597l-1.595,5.821l5.973-1.566l0.577,0.342c2.422,1.438,5.2,2.198,8.032,2.199h0.006c8.698,0,15.777-7.077,15.78-15.776C39.795,19.778,38.156,15.814,35.176,12.832z"></path>
  <path fill="#fff" fill-rule="evenodd"
    d="M19.268,16.045c-0.355-0.79-0.729-0.806-1.068-0.82c-0.277-0.012-0.593-0.011-0.909-0.011c-0.316,0-0.83,0.119-1.265,0.594c-0.435,0.475-1.661,1.622-1.661,3.956c0,2.334,1.7,4.59,1.937,4.906c0.237,0.316,3.282,5.259,8.104,7.161c4.007,1.58,4.823,1.266,5.693,1.187c0.87-0.079,2.807-1.147,3.202-2.255c0.395-1.108,0.395-2.057,0.277-2.255c-0.119-0.198-0.435-0.316-0.909-0.554s-2.807-1.385-3.242-1.543c-0.435-0.158-0.751-0.237-1.068,0.238c-0.316,0.474-1.225,1.543-1.502,1.859c-0.277,0.317-0.554,0.357-1.028,0.119c-0.474-0.238-2.002-0.738-3.815-2.354c-1.41-1.257-2.362-2.81-2.639-3.285c-0.277-0.474-0.03-0.731,0.208-0.968c0.213-0.213,0.474-0.554,0.712-0.831c0.237-0.277,0.316-0.475,0.474-0.791c0.158-0.317,0.079-0.594-0.04-0.831C20.612,19.329,19.69,16.983,19.268,16.045z"
    clip-rule="evenodd"></path>
</symbol>
<symbol viewBox="0 0 256 180" className="w-6 h-6" fill="#FF0000" aria-hidden="true" id="youtube">
  <path 
    d="M250.346 28.075A32.18 32.18 0 0 0 227.69 5.418C207.824 0 127.87 0 127.87 0S47.912.164 28.046 5.582A32.18 32.18 0 0 0 5.39 28.24c-6.009 35.298-8.34 89.084.165 122.97a32.18 32.18 0 0 0 22.656 22.657c19.866 5.418 99.822 5.418 99.822 5.418s79.955 0 99.82-5.418a32.18 32.18 0 0 0 22.657-22.657c6.338-35.348 8.291-89.1-.164-123.134Z"></path>
  <path 
    fill="#FFF"
    d="m102.421 128.06l66.328-38.418l-66.328-38.418z"
  ></path>
</symbol>
</defs>
</svg>
