<svg width="539" height="296" viewBox="0 0 539 296" fill="none" xmlns="http://www.w3.org/2000/svg">
<g clip-path="url(#clip0_71_221)">
<path d="M82.2225 252.92C70.2535 261.833 66.8613 277.516 66.8613 277.516C66.8613 277.516 82.8748 278.747 94.8438 269.834C106.813 260.92 110.205 245.238 110.205 245.238C110.205 245.238 94.1915 244.006 82.2225 252.92Z" fill="#F1F1F1"/>
<path d="M87.2079 257.104C81.4555 270.866 67.0487 277.958 67.0487 277.958C67.0487 277.958 61.9685 262.737 67.7209 248.975C73.4733 235.213 87.8801 228.122 87.8801 228.122C87.8801 228.122 92.9604 243.343 87.2079 257.104Z" fill="#F1F1F1"/>
<path d="M431.567 217.32C430.295 208.763 429.959 200.092 430.565 191.462L431.567 177.178C426.045 188.153 427.293 202.598 431.567 217.32Z" fill="#CACACA"/>
<path d="M435.872 219.71C435.26 214.603 435.098 209.453 435.39 204.318L435.872 195.816C433.216 202.348 433.816 210.946 435.872 219.71Z" fill="#CACACA"/>
<path d="M455.009 230.224V235.003C455.007 235.383 454.855 235.746 454.586 236.015C454.317 236.283 453.954 236.435 453.574 236.437H451.182C451.119 236.437 451.056 236.449 450.998 236.473C450.94 236.497 450.887 236.532 450.843 236.576C450.798 236.621 450.763 236.674 450.739 236.732C450.715 236.79 450.703 236.852 450.703 236.915V276.101C450.701 276.481 450.55 276.845 450.281 277.113C450.012 277.381 449.648 277.533 449.268 277.535H420.088C419.707 277.535 419.343 277.384 419.073 277.115C418.804 276.846 418.653 276.481 418.653 276.101V236.915C418.652 236.788 418.602 236.667 418.512 236.577C418.423 236.488 418.301 236.437 418.174 236.437H415.304C414.924 236.437 414.559 236.285 414.29 236.017C414.021 235.748 413.869 235.383 413.869 235.003V230.224C413.869 230.036 413.906 229.85 413.978 229.676C414.05 229.501 414.156 229.343 414.289 229.21C414.422 229.077 414.581 228.971 414.755 228.899C414.929 228.827 415.116 228.791 415.304 228.791H453.574C453.954 228.792 454.318 228.943 454.587 229.212C454.856 229.481 455.008 229.845 455.009 230.224Z" fill="#F2F2F2"/>
<path d="M450.747 237.44H418.696V238.874H450.747V237.44Z" fill="#E6E6E6"/>
<path d="M450.704 258.537C439.979 262.97 429.137 263.019 418.175 258.537V248.436C428.728 244.896 440.15 244.896 450.704 248.436V258.537Z" fill="#E6E6E6"/>
<path d="M271.056 104.107C294.998 104.107 314.407 84.7175 314.407 60.7999C314.407 36.8823 294.998 17.4933 271.056 17.4933C247.115 17.4933 227.706 36.8823 227.706 60.7999C227.706 84.7175 247.115 104.107 271.056 104.107Z" fill="#9E616A"/>
<path d="M311.546 23.4385C305.065 12.9246 294.92 5.1773 283.064 1.68794L277.742 5.56768V0.529951C274.894 0.0945849 272.012 -0.0731306 269.134 0.0290103L264.542 4.17926V0.373815C257.744 1.21774 251.194 3.45966 245.307 6.9582C239.419 10.4567 234.321 15.136 230.334 20.7009C220.363 35.0611 218.679 55.0391 228.487 69.5145C231.179 61.2491 234.446 53.4938 237.139 45.2292C239.255 45.5173 241.4 45.5277 243.518 45.2601L246.794 37.625L247.709 44.937C257.861 44.0536 272.919 42.1134 282.544 40.3359L281.608 34.7263L287.207 39.3875C290.156 38.7096 291.906 38.0942 291.762 37.6242C298.92 49.1524 307.68 56.5153 314.837 68.0435C317.556 51.7881 320.685 38.272 311.546 23.4385Z" fill="#2F2E41"/>
<path d="M364.291 172.164C362.801 163.205 361.263 154.074 357.095 146.003C354.356 140.717 350.007 135.679 344.145 134.634C342.99 134.531 341.856 134.268 340.773 133.854C339.056 133.027 315.974 119.864 312.306 117.572C309.156 115.604 304.183 111.959 301.676 111.959C299.154 111.904 289.482 114.153 251.732 111.205C251.732 111.205 241.362 115.288 233.338 120.24C233.216 120.16 194.157 141.113 192.69 141.058C189.911 140.941 187.328 142.719 185.734 144.957C184.142 147.195 183.395 149.966 182.612 152.646C191.143 171.625 198.949 190.629 207.481 209.608C207.881 210.323 208.093 211.127 208.098 211.946C207.927 212.796 207.564 213.595 207.037 214.284C202.853 220.998 202.986 229.443 203.443 237.334C203.9 245.226 204.466 253.561 200.936 260.635C199.975 262.576 198.727 264.354 197.813 266.296C195.675 270.694 194.902 284.761 196.151 289.487L352.656 293.966C349.291 284.725 364.291 172.164 364.291 172.164Z" fill="#2364AA"/>
<path d="M169.084 210.45C168.771 212.707 168.74 214.993 168.99 217.258L171.233 249.439C171.444 252.473 171.651 255.498 171.936 258.524C172.474 264.396 173.278 270.221 174.276 276.037C174.299 276.863 174.648 277.646 175.248 278.215C175.848 278.784 176.649 279.091 177.476 279.071C187.35 281.158 197.552 281.074 207.629 280.506C223.007 279.648 262.348 278.026 264.752 274.907C267.155 271.788 265.755 266.743 262.62 264.22C259.486 261.698 207.57 255.549 207.57 255.549C208.077 251.533 209.607 247.751 211.059 243.938C213.667 237.176 216.102 230.191 216.149 222.947C216.196 215.702 213.463 208.086 207.523 203.935C202.637 200.528 196.345 199.896 190.391 200.036C186.058 200.161 178.572 199.124 174.615 200.816C171.484 202.194 169.669 207.387 169.084 210.45Z" fill="#9E616A"/>
<path d="M182.16 153.223C181.4 154.018 180.81 154.961 180.428 155.992C174.118 170.197 170.392 185.411 169.422 200.922C169.439 201.679 169.265 202.427 168.915 203.098C168.57 203.544 168.186 203.959 167.767 204.338C167.402 204.77 167.126 205.269 166.955 205.808C166.783 206.347 166.72 206.914 166.767 207.477C166.815 208.041 166.974 208.589 167.234 209.091C167.494 209.593 167.85 210.039 168.283 210.404C168.354 210.463 168.426 210.521 168.501 210.576C169.789 208.155 172.872 207.363 175.612 207.153C188.733 206.116 201.55 212.214 214.71 211.754C213.782 208.549 212.446 205.469 211.689 202.225C208.34 187.823 216.693 172.142 211.572 158.269C210.549 155.493 208.84 152.764 206.148 151.548C205.032 151.098 203.866 150.79 202.674 150.629C199.349 150.029 192.729 147.463 189.514 148.493C188.327 148.875 187.859 149.99 186.875 150.663C185.381 151.617 183.399 151.967 182.16 153.223Z" fill="#2364AA"/>
<path d="M364.384 200.816C360.427 199.124 352.941 200.161 348.609 200.036C342.654 199.896 336.363 200.528 331.476 203.935C325.536 208.086 322.804 215.702 322.851 222.947C322.897 230.191 325.333 237.176 327.94 243.938C329.392 247.751 330.922 251.533 331.429 255.549C331.429 255.549 279.513 261.698 276.379 264.22C273.245 266.743 271.844 271.788 274.248 274.907C276.651 278.026 351.649 281.158 361.523 279.071C362.35 279.091 363.151 278.784 363.751 278.215C364.351 277.646 364.701 276.863 364.723 276.037C365.721 270.221 366.525 264.396 367.063 258.524C367.348 255.498 367.556 252.473 367.766 249.439L370.009 217.258C370.259 214.993 370.228 212.707 369.916 210.45C369.331 207.387 367.516 202.194 364.384 200.816Z" fill="#9E616A"/>
<path d="M352.124 150.663C351.14 149.99 350.672 148.875 349.486 148.493C346.27 147.463 339.651 150.029 336.325 150.629C335.134 150.79 333.967 151.098 332.852 151.547C330.159 152.764 328.45 155.493 327.427 158.269C322.307 172.142 330.659 187.823 327.31 202.225C326.553 205.469 325.218 208.549 324.289 211.754C337.449 212.214 350.266 206.116 363.387 207.153C366.128 207.363 369.211 208.155 370.498 210.576C370.573 210.521 370.646 210.463 370.717 210.404C371.149 210.039 371.506 209.593 371.766 209.091C372.026 208.589 372.184 208.041 372.232 207.477C372.28 206.914 372.216 206.347 372.045 205.808C371.873 205.269 371.597 204.77 371.232 204.338C370.814 203.959 370.43 203.544 370.085 203.098C369.735 202.427 369.56 201.678 369.577 200.922C368.608 185.411 364.881 170.197 358.572 155.992C358.189 154.961 357.599 154.018 356.839 153.223C355.601 151.967 353.618 151.617 352.124 150.663Z" fill="#2364AA"/>
<path d="M258.218 280.607C264.68 280.607 269.918 275.374 269.918 268.919C269.918 262.464 264.68 257.23 258.218 257.23C251.756 257.23 246.518 262.464 246.518 268.919C246.518 275.374 251.756 280.607 258.218 280.607Z" fill="#9E616A"/>
<path d="M284.125 280.607C290.587 280.607 295.825 275.374 295.825 268.919C295.825 262.464 290.587 257.23 284.125 257.23C277.663 257.23 272.425 262.464 272.425 268.919C272.425 275.374 277.663 280.607 284.125 280.607Z" fill="#9E616A"/>
<path d="M356.348 295.257H195.604C193.728 295.255 191.928 294.51 190.601 293.184C189.274 291.858 188.528 290.061 188.525 288.186V190.765C188.528 188.891 189.274 187.093 190.601 185.768C191.928 184.442 193.728 183.696 195.604 183.694H356.348C358.225 183.696 360.024 184.442 361.351 185.768C362.678 187.093 363.425 188.891 363.427 190.765V288.186C363.425 290.061 362.678 291.858 361.351 293.184C360.024 294.51 358.225 295.255 356.348 295.257Z" fill="#3F3D56"/>
<path d="M275.586 244.155C278.172 244.155 280.269 242.06 280.269 239.476C280.269 236.892 278.172 234.797 275.586 234.797C272.999 234.797 270.902 236.892 270.902 239.476C270.902 242.06 272.999 244.155 275.586 244.155Z" fill="white"/>
<path d="M539 275.607H0V292.154H31.8812V296H507.131V292.154H539V275.607Z" fill="#F1F1F1"/>
<path d="M231.193 76.9411C224.228 76.9411 218.581 70.8419 218.581 63.3181V56.5065C218.581 48.9828 224.228 42.8835 231.193 42.8835L231.193 76.9411Z" fill="#2364AA"/>
<path d="M311.693 42.8835C318.659 42.8835 324.306 48.9828 324.306 56.5066V63.3181C324.306 70.8419 318.659 76.9411 311.693 76.9411V42.8835Z" fill="#2364AA"/>
<path d="M318.302 57.5769H316.301C316.301 30.1648 295.655 7.86323 270.276 7.86323C244.898 7.86323 224.251 30.1648 224.251 57.5769H222.25C222.25 28.9729 243.794 5.70178 270.276 5.70178C296.758 5.70179 318.302 28.9729 318.302 57.5769Z" fill="#2364AA"/>
</g>
<defs>
<clipPath id="clip0_71_221">
<rect width="539" height="296" fill="white"/>
</clipPath>
</defs>
</svg>
