<svg width="555" height="361" viewBox="0 0 555 361" fill="none" xmlns="http://www.w3.org/2000/svg">
<g clipPath="url(#clip0_61_267)">
<path d="M170.371 337.954C174.126 329.842 177.879 321.611 179.508 312.822C181.138 304.033 180.454 294.494 175.787 286.871C171.119 279.248 161.929 274.078 153.159 275.802C145.956 277.217 140.172 282.891 136.785 289.405C133.399 295.918 132.04 303.265 130.723 310.488C130.297 302.283 129.846 293.945 127.121 286.194C124.395 278.443 119.029 271.22 111.38 268.22C103.732 265.221 93.782 267.58 89.7509 274.739C84.0716 284.825 91.6021 298.973 85.0717 308.53C83.9515 298.943 73.9277 291.369 64.4009 292.911C54.8741 294.453 47.75 304.802 49.7098 314.252C50.876 319.876 54.7123 324.659 59.2989 328.114C63.8855 331.57 69.2199 335.575 74.4969 337.84L170.371 337.954Z" fill="#14C7A3"/>
<path d="M54.7115 299.684C62.279 302.33 69.9161 305.005 76.8248 309.141C83.0167 312.848 88.5305 317.838 92.0128 324.23C93.9207 327.658 95.0536 331.464 95.3314 335.378C95.3817 336.197 96.6622 336.202 96.6116 335.378C96.1639 328.089 92.6121 321.419 87.6938 316.143C82.3015 310.359 75.3136 306.409 68.099 303.344C63.8213 301.527 59.4373 299.983 55.0519 298.45C54.2726 298.177 53.9375 299.414 54.7115 299.684Z" fill="white"/>
<path d="M98.3619 269.491C103.011 277.238 106.734 285.504 109.455 294.119C112.181 302.732 113.898 311.632 114.571 320.641C114.944 325.684 114.985 330.746 114.693 335.794C114.646 336.617 115.926 336.614 115.973 335.794C116.49 326.692 115.939 317.561 114.332 308.587C112.728 299.615 110.091 290.858 106.475 282.491C104.444 277.792 102.104 273.233 99.4674 268.845C99.3787 268.704 99.2389 268.604 99.0776 268.565C98.9162 268.525 98.7459 268.55 98.6025 268.634C98.4591 268.718 98.3539 268.854 98.309 269.014C98.2641 269.174 98.2831 269.345 98.3619 269.491Z" fill="white"/>
<path d="M161.021 276.846C154.445 291.623 149.817 307.193 147.253 323.164C146.534 327.65 145.976 332.158 145.582 336.688C145.51 337.509 146.791 337.504 146.862 336.688C148.256 320.753 151.7 305.064 157.108 290.01C158.627 285.778 160.3 281.605 162.126 277.492C162.458 276.746 161.355 276.093 161.021 276.846Z" fill="white"/>
<path d="M388.076 355.395L387.974 347.446L350.504 347.93L350.606 355.879L388.076 355.395Z" fill="#E6E6E6"/>
<path d="M401.391 357.168L396.04 357.153L392.732 351.25L396.307 345.368L401.279 345.382C400.034 343.798 398.324 342.644 396.39 342.08C394.455 341.517 392.393 341.573 390.492 342.241C388.592 342.909 386.947 344.155 385.79 345.805C384.633 347.454 384.021 349.424 384.04 351.439C384.06 353.454 384.709 355.412 385.897 357.04C387.085 358.667 388.752 359.882 390.666 360.514C392.579 361.145 394.642 361.162 396.565 360.562C398.488 359.962 400.176 358.776 401.391 357.168Z" fill="#E6E6E6"/>
<path d="M337.189 357.168L342.54 357.153L345.848 351.25L342.273 345.368L337.301 345.382C338.546 343.798 340.256 342.644 342.19 342.08C344.125 341.517 346.187 341.573 348.088 342.241C349.989 342.909 351.633 344.155 352.79 345.805C353.947 347.454 354.559 349.424 354.54 351.439C354.52 353.454 353.871 355.412 352.683 357.04C351.495 358.667 349.828 359.882 347.914 360.514C346.001 361.145 343.938 361.162 342.015 360.562C340.092 359.962 338.404 358.776 337.189 357.168Z" fill="#E6E6E6"/>
<path d="M554.196 338.645H0.804348C0.591021 338.645 0.386432 338.56 0.235587 338.409C0.0847429 338.258 0 338.054 0 337.84C0 337.627 0.0847429 337.422 0.235587 337.271C0.386432 337.12 0.591021 337.036 0.804348 337.036H554.196C554.409 337.036 554.614 337.12 554.764 337.271C554.915 337.422 555 337.627 555 337.84C555 338.054 554.915 338.258 554.764 338.409C554.614 338.56 554.409 338.645 554.196 338.645Z" fill="#3F3D56"/>
<path d="M434.739 185.801C449.398 185.801 461.282 173.916 461.282 159.254C461.282 144.593 449.398 132.708 434.739 132.708C420.079 132.708 408.195 144.593 408.195 159.254C408.195 173.916 420.079 185.801 434.739 185.801Z" fill="#2F2E41"/>
<path d="M445.495 308.282L447.54 317.93L485.722 314.636L482.705 300.397L445.495 308.282Z" fill="#9E616A"/>
<path d="M442.524 338.436L436.099 308.114L447.814 305.631L451.756 324.238C452.415 327.345 451.812 330.586 450.08 333.249C448.349 335.912 445.631 337.777 442.524 338.436Z" fill="#2F2E41"/>
<path d="M421.575 307.768L417.277 316.645L380.998 304.291L387.341 291.191L421.575 307.768Z" fill="#9E616A"/>
<path d="M411.672 321.757L419.96 304.638L430.737 309.856L417.231 337.754C415.816 337.069 414.55 336.111 413.504 334.936C412.459 333.762 411.655 332.392 411.139 330.907C410.623 329.421 410.404 327.849 410.496 326.279C410.587 324.709 410.987 323.172 411.672 321.757Z" fill="#2F2E41"/>
<path d="M350.1 290.237C351.342 290.468 352.619 290.424 353.842 290.108C355.066 289.792 356.205 289.212 357.179 288.408C358.154 287.604 358.94 286.597 359.483 285.456C360.026 284.315 360.313 283.069 360.322 281.806L420.145 226.645L405.289 215.137L351.126 273.011C349.003 273.136 346.999 274.035 345.494 275.538C343.99 277.042 343.089 279.045 342.963 281.168C342.836 283.291 343.493 285.387 344.808 287.059C346.124 288.73 348.007 289.861 350.1 290.237Z" fill="#9E616A"/>
<path d="M431.408 187C442.319 187 451.164 178.154 451.164 167.242C451.164 156.33 442.319 147.484 431.408 147.484C420.497 147.484 411.652 156.33 411.652 167.242C411.652 178.154 420.497 187 431.408 187Z" fill="#9E616A"/>
<path d="M449.137 283.383C435.279 283.383 418.59 280.464 408.293 268.519L408.062 268.25L408.3 267.986C408.378 267.9 415.952 259.243 408.389 243.804L397.991 247.003L387.639 233.337L393.373 216.13L416.842 197.223C420.205 194.529 424.299 192.906 428.594 192.566C436.368 191.814 443.94 189.658 450.943 186.2C454.147 184.643 457.676 183.872 461.238 183.949L461.7 183.962C462.783 183.993 463.849 184.243 464.832 184.698C465.816 185.152 466.697 185.802 467.422 186.608C468.147 187.413 468.701 188.357 469.05 189.383C469.4 190.409 469.537 191.495 469.454 192.576C467.863 213.194 465.052 262.999 473.308 280.148L473.521 280.591L473.045 280.712C465.198 282.478 457.18 283.373 449.137 283.383Z" fill="#2364AA"/>
<path d="M411.011 268.256C411.011 268.256 358.728 263.429 353.098 278.714C347.467 293.998 353.902 301.238 363.554 304.456C373.206 307.674 396.532 311.696 396.532 311.696L406.989 298.825L434.337 300.434C434.337 300.434 464.809 318.11 473.235 337.015C475.042 341.106 477.925 344.631 481.576 347.214C485.227 349.798 489.51 351.343 493.969 351.687C500.724 352.157 506.728 349.605 506.728 339.047C506.728 314.914 472.945 280.323 472.945 280.323L411.011 268.256Z" fill="#2F2E41"/>
<path d="M371.195 291.987C371.195 291.987 384.869 287.965 406.587 298.423L371.195 291.987Z" fill="#2F2E41"/>
<path d="M411.699 154.642C419.414 159.352 428.112 162.218 437.116 163.017L434.437 159.807C436.388 160.528 438.44 160.936 440.519 161.015C441.559 161.045 442.592 160.831 443.535 160.389C444.478 159.948 445.304 159.292 445.948 158.473C446.473 157.623 446.785 156.659 446.857 155.662C446.93 154.666 446.76 153.666 446.362 152.75C445.546 150.921 444.275 149.332 442.671 148.133C439.827 145.884 436.472 144.373 432.903 143.735C429.334 143.097 425.662 143.352 422.216 144.477C419.852 145.184 417.734 146.542 416.106 148.397C415.306 149.331 414.75 150.449 414.489 151.651C414.227 152.853 414.268 154.101 414.608 155.283" fill="#2F2E41"/>
<path d="M434.597 138.849C438.107 130.698 443.361 123.416 449.989 117.515C454.246 113.731 459.217 110.481 464.827 109.5C470.436 108.519 476.758 110.2 480.198 114.738C483.012 118.449 483.538 123.42 483.228 128.067C482.918 132.713 481.88 137.315 481.979 141.971C482.08 146.722 483.367 151.372 485.721 155.499C488.075 159.626 491.423 163.1 495.46 165.606C499.497 168.111 504.096 169.568 508.839 169.845C513.582 170.122 518.319 169.209 522.62 167.191C517.777 169.869 514.003 174.107 509.506 177.333C505.009 180.559 499.079 182.771 493.972 180.64C488.568 178.384 486.09 172.258 484.154 166.731L475.522 142.083C474.054 137.893 472.514 133.579 469.52 130.302C466.525 127.025 461.666 125.027 457.544 126.675C454.42 127.924 452.386 130.904 450.602 133.757C448.818 136.61 446.936 139.646 443.923 141.142C440.909 142.637 436.444 141.717 435.459 138.499" fill="#2F2E41"/>
<path d="M434.047 258.38L428.499 264.074L455.337 290.229L460.885 284.535L434.047 258.38Z" fill="#E6E6E6"/>
<path d="M455.671 285.004C454.574 286.13 453.835 287.557 453.548 289.103C453.262 290.649 453.44 292.245 454.06 293.69C454.68 295.134 455.715 296.363 457.034 297.219C458.352 298.076 459.895 298.522 461.467 298.502C463.039 298.481 464.569 297.995 465.865 297.105C467.161 296.214 468.164 294.96 468.746 293.5C469.329 292.039 469.466 290.439 469.139 288.901C468.813 287.363 468.037 285.956 466.911 284.859C465.402 283.388 463.369 282.576 461.261 282.603C459.153 282.631 457.142 283.494 455.671 285.004ZM463.804 292.93C463.333 293.413 462.731 293.745 462.072 293.885C461.413 294.025 460.727 293.967 460.101 293.717C459.475 293.467 458.938 293.037 458.556 292.482C458.175 291.927 457.966 291.27 457.958 290.597C457.949 289.923 458.14 289.262 458.507 288.697C458.874 288.131 459.401 287.688 460.02 287.422C460.639 287.156 461.323 287.08 461.985 287.203C462.648 287.326 463.259 287.642 463.741 288.112C464.388 288.743 464.759 289.605 464.77 290.508C464.782 291.412 464.434 292.283 463.804 292.93Z" fill="#E6E6E6"/>
<path d="M425.886 247.71L429.658 251.505L427.824 258.018L421.137 259.649L417.632 256.123C417.392 258.124 417.785 260.149 418.754 261.915C419.724 263.682 421.222 265.1 423.038 265.972C424.854 266.844 426.898 267.126 428.882 266.778C430.867 266.43 432.693 265.469 434.104 264.031C435.515 262.593 436.44 260.749 436.751 258.758C437.061 256.767 436.741 254.729 435.835 252.929C434.929 251.13 433.482 249.659 431.698 248.723C429.914 247.787 427.881 247.433 425.886 247.71Z" fill="#E6E6E6"/>
<path d="M441.375 283.452C441.034 283.452 440.694 283.433 440.355 283.395C438.369 283.165 436.52 282.27 435.106 280.857C433.693 279.443 432.799 277.593 432.569 275.607C432.427 274.368 432.55 273.114 432.927 271.925C433.304 270.737 433.928 269.641 434.759 268.711C435.589 267.781 436.606 267.036 437.744 266.526C438.882 266.017 440.114 265.753 441.361 265.753C441.756 265.755 442.15 265.784 442.54 265.841L469.549 237.086L466.73 227.686L480.89 221.338L484.859 231.04C486.189 234.326 486.423 237.954 485.528 241.384C484.633 244.815 482.656 247.865 479.89 250.083L450.161 273.734C450.192 274.022 450.208 274.312 450.209 274.602C450.208 275.846 449.945 277.076 449.437 278.212C448.93 279.348 448.188 280.365 447.262 281.195C445.648 282.653 443.55 283.458 441.375 283.452Z" fill="#9E616A"/>
<path d="M462.489 187.812C463.426 187.396 464.437 187.173 465.461 187.158C466.486 187.142 467.503 187.333 468.452 187.721C469.401 188.108 470.261 188.684 470.982 189.412C471.703 190.141 472.269 191.007 472.647 191.96L486.62 227.23L464.902 241.71L462.489 187.812Z" fill="#2364AA"/>
<path d="M360.739 196.048V20.322C360.731 14.9346 358.588 9.77007 354.779 5.9606C350.97 2.15113 345.806 0.00762271 340.419 0H64.3109C58.9241 0.00762483 53.7602 2.15113 49.9511 5.9606C46.1421 9.77006 43.9988 14.9346 43.9912 20.322V196.048C43.9988 201.435 46.1421 206.6 49.9511 210.409C53.7602 214.219 58.9241 216.362 64.3109 216.37H340.419C345.806 216.362 350.97 214.219 354.779 210.409C358.588 206.6 360.731 201.435 360.739 196.048ZM64.3109 213.979C59.5576 213.973 55.0006 212.082 51.6395 208.721C48.2784 205.359 46.3876 200.802 46.3818 196.048V20.322C46.3876 15.5681 48.2784 11.0106 51.6395 7.64913C55.0006 4.28763 59.5576 2.3966 64.3109 2.39081H340.419C345.173 2.39659 349.73 4.28763 353.091 7.64913C356.452 11.0106 358.343 15.5681 358.349 20.322V196.048C358.343 200.802 356.452 205.359 353.091 208.721C349.73 212.082 345.173 213.973 340.419 213.979H64.3109Z" fill="#3F3D56"/>
<path d="M358.349 31.6172H46.3818C46.0648 31.6172 45.7608 31.4912 45.5366 31.267C45.3125 31.0429 45.1865 30.7388 45.1865 30.4218C45.1865 30.1047 45.3125 29.8007 45.5366 29.5765C45.7608 29.3523 46.0648 29.2264 46.3818 29.2264H358.349C358.666 29.2264 358.97 29.3523 359.194 29.5765C359.418 29.8007 359.544 30.1047 359.544 30.4218C359.544 30.7388 359.418 31.0429 359.194 31.267C358.97 31.4912 358.666 31.6172 358.349 31.6172Z" fill="#3F3D56"/>
<path d="M66.701 22.7129C70.0016 22.7129 72.6774 20.0368 72.6774 16.7358C72.6774 13.4348 70.0016 10.7587 66.701 10.7587C63.4003 10.7587 60.7246 13.4348 60.7246 16.7358C60.7246 20.0368 63.4003 22.7129 66.701 22.7129Z" fill="#2364AA"/>
<path d="M87.0213 22.7129C90.322 22.7129 92.9977 20.0368 92.9977 16.7358C92.9977 13.4348 90.322 10.7587 87.0213 10.7587C83.7206 10.7587 81.0449 13.4348 81.0449 16.7358C81.0449 20.0368 83.7206 22.7129 87.0213 22.7129Z" fill="#2364AA"/>
<path d="M107.341 22.7129C110.641 22.7129 113.317 20.0368 113.317 16.7358C113.317 13.4348 110.641 10.7587 107.341 10.7587C104.04 10.7587 101.364 13.4348 101.364 16.7358C101.364 20.0368 104.04 22.7129 107.341 22.7129Z" fill="#2364AA"/>
<path d="M152.005 160.27C151.899 160.27 151.794 160.249 151.697 160.209C151.599 160.168 151.511 160.109 151.436 160.034C151.361 159.96 151.302 159.871 151.261 159.773C151.221 159.676 151.2 159.571 151.2 159.466C151.2 151.078 147.524 146.4 141.592 141.569C141.51 141.503 141.442 141.42 141.391 141.327C141.341 141.234 141.309 141.132 141.298 141.027C141.287 140.922 141.297 140.815 141.328 140.714C141.358 140.613 141.408 140.518 141.475 140.436C141.541 140.354 141.624 140.286 141.717 140.236C141.81 140.186 141.912 140.154 142.017 140.144C142.123 140.133 142.229 140.143 142.33 140.174C142.432 140.204 142.526 140.255 142.608 140.322C148.906 145.45 152.809 150.442 152.809 159.466C152.809 159.571 152.788 159.676 152.748 159.773C152.707 159.871 152.648 159.96 152.573 160.034C152.499 160.109 152.41 160.168 152.312 160.209C152.215 160.249 152.11 160.27 152.005 160.27Z" fill="black"/>
<path d="M83.1022 160.27C82.9966 160.27 82.892 160.249 82.7944 160.209C82.6968 160.168 82.6081 160.109 82.5334 160.034C82.4587 159.96 82.3994 159.871 82.359 159.773C82.3186 159.676 82.2978 159.571 82.2979 159.466C82.2979 150.442 86.201 145.45 92.4991 140.322C92.581 140.255 92.6752 140.204 92.7765 140.174C92.8778 140.143 92.9842 140.133 93.0895 140.144C93.1947 140.154 93.2969 140.186 93.39 140.236C93.4832 140.286 93.5655 140.354 93.6323 140.436C93.6991 140.518 93.7491 140.613 93.7793 140.714C93.8096 140.815 93.8195 140.922 93.8086 141.027C93.7977 141.132 93.7661 141.234 93.7157 141.327C93.6652 141.42 93.597 141.503 93.5147 141.569C87.5831 146.4 83.9065 151.079 83.9065 159.466C83.9066 159.571 83.8858 159.676 83.8454 159.773C83.805 159.871 83.7457 159.96 83.671 160.034C83.5963 160.109 83.5076 160.168 83.41 160.209C83.3124 160.249 83.2078 160.27 83.1022 160.27Z" fill="black"/>
<path d="M145.115 105.141C144.949 105.142 144.787 105.09 144.651 104.994C144.516 104.899 144.413 104.763 144.357 104.607C144.301 104.45 144.296 104.28 144.34 104.12C144.385 103.96 144.478 103.818 144.607 103.713C150.704 98.7488 151.2 91.6962 151.2 83.6639C151.2 83.4506 151.285 83.246 151.436 83.0951C151.587 82.9443 151.791 82.8595 152.005 82.8595C152.218 82.8595 152.423 82.9443 152.574 83.0951C152.724 83.246 152.809 83.4506 152.809 83.6639C152.809 92.1145 152.268 99.5497 145.623 104.961C145.479 105.078 145.3 105.142 145.115 105.141Z" fill="black"/>
<path d="M89.9922 104.711C89.8072 104.711 89.6279 104.647 89.4847 104.53C82.8387 99.1187 82.2979 91.8788 82.2979 83.6639C82.2979 83.4505 82.3826 83.2459 82.5335 83.0951C82.6843 82.9442 82.8889 82.8594 83.1022 82.8594C83.3155 82.8594 83.5201 82.9442 83.671 83.0951C83.8218 83.2459 83.9065 83.4505 83.9065 83.6639C83.9065 91.7377 84.392 98.3092 90.5004 103.283C90.6292 103.388 90.7224 103.53 90.7671 103.69C90.8118 103.85 90.8059 104.02 90.7503 104.176C90.6946 104.333 90.5918 104.468 90.4561 104.564C90.3203 104.66 90.1583 104.711 89.9922 104.711Z" fill="black"/>
<path d="M162.34 122.397H145.115C144.902 122.397 144.697 122.313 144.546 122.162C144.395 122.011 144.311 121.806 144.311 121.593C144.311 121.379 144.395 121.175 144.546 121.024C144.697 120.873 144.902 120.788 145.115 120.788H162.34C162.554 120.788 162.758 120.873 162.909 121.024C163.06 121.175 163.145 121.379 163.145 121.593C163.145 121.806 163.06 122.011 162.909 122.162C162.758 122.313 162.554 122.397 162.34 122.397Z" fill="black"/>
<path d="M89.9928 122.397H72.7672C72.5539 122.397 72.3493 122.313 72.1985 122.162C72.0476 122.011 71.9629 121.806 71.9629 121.593C71.9629 121.379 72.0476 121.175 72.1985 121.024C72.3493 120.873 72.5539 120.788 72.7672 120.788H89.9928C90.2061 120.788 90.4107 120.873 90.5616 121.024C90.7124 121.175 90.7971 121.379 90.7971 121.593C90.7971 121.806 90.7124 122.011 90.5616 122.162C90.4107 122.313 90.2061 122.397 89.9928 122.397Z" fill="black"/>
<path d="M117.553 156.824C117.448 156.824 117.343 156.804 117.246 156.763C117.148 156.723 117.059 156.664 116.985 156.589C116.91 156.514 116.851 156.425 116.81 156.328C116.77 156.23 116.749 156.126 116.749 156.02V100.892C116.749 100.678 116.834 100.474 116.985 100.323C117.135 100.172 117.34 100.087 117.553 100.087C117.767 100.087 117.971 100.172 118.122 100.323C118.273 100.474 118.358 100.678 118.358 100.892V156.02C118.358 156.126 118.337 156.23 118.297 156.328C118.256 156.425 118.197 156.514 118.122 156.589C118.047 156.664 117.959 156.723 117.861 156.763C117.764 156.804 117.659 156.824 117.553 156.824Z" fill="black"/>
<path d="M117.553 156.824C110.033 156.816 102.823 153.824 97.5058 148.506C92.1882 143.188 89.197 135.977 89.1885 128.456V107.768C89.1885 94.52 100.057 86.2902 117.554 86.2902C135.845 86.2902 145.919 93.9178 145.919 107.768V128.456C145.91 135.977 142.919 143.188 137.601 148.506C132.284 153.824 125.074 156.816 117.553 156.824ZM117.553 87.899C104.619 87.899 90.7971 93.1185 90.7971 107.768V128.456C90.7952 131.971 91.4859 135.452 92.8297 138.701C94.1734 141.949 96.144 144.901 98.6288 147.387C101.114 149.874 104.064 151.846 107.311 153.192C110.558 154.537 114.039 155.23 117.554 155.23C121.069 155.23 124.549 154.537 127.796 153.192C131.044 151.846 133.994 149.874 136.479 147.387C138.963 144.901 140.934 141.949 142.278 138.701C143.622 135.452 144.312 131.971 144.31 128.456V107.768C144.31 90.4805 127.546 87.899 117.553 87.899Z" fill="black"/>
<path d="M101.067 91.2566C100.906 91.2567 100.748 91.2084 100.615 91.118C100.482 91.0277 100.379 90.8995 100.319 90.7499C99.8548 89.587 99.5862 88.3552 99.5244 87.1044C99.5385 82.3352 101.436 77.7647 104.804 74.3883C108.172 71.0119 112.737 69.1031 117.506 69.0776H117.598C122.361 69.1003 126.922 71.0023 130.29 74.3702C133.657 77.738 135.56 82.2993 135.583 87.0624C135.541 88.226 135.294 89.3729 134.851 90.4498C134.769 90.6457 134.613 90.801 134.416 90.8821C134.22 90.9631 134 90.9633 133.803 90.8825C133.607 90.8018 133.45 90.6466 133.368 90.4509C133.286 90.2552 133.284 90.0348 133.363 89.8378C133.731 88.946 133.938 87.9963 133.975 87.0325C133.947 82.7001 132.211 78.5536 129.144 75.4933C126.078 72.4329 121.928 70.7057 117.596 70.6865H117.508C113.171 70.708 109.018 72.4408 105.952 75.508C102.885 78.5752 101.153 82.7289 101.132 87.0663C101.189 88.1257 101.419 89.1687 101.813 90.1537C101.862 90.2757 101.88 90.4078 101.866 90.5383C101.851 90.6689 101.805 90.794 101.732 90.9027C101.658 91.0115 101.559 91.1006 101.443 91.1623C101.327 91.224 101.198 91.2564 101.067 91.2566Z" fill="black"/>
<path d="M199.246 86.8817H189.593C188.1 86.8817 186.668 86.2885 185.612 85.2324C184.556 84.1764 183.963 82.7441 183.963 81.2507C183.963 79.7572 184.556 78.3249 185.612 77.2689C186.668 76.2128 188.1 75.6196 189.593 75.6196H199.246C200.739 75.6196 202.171 76.2128 203.227 77.2689C204.283 78.3249 204.876 79.7572 204.876 81.2507C204.876 82.7441 204.283 84.1764 203.227 85.2324C202.171 86.2885 200.739 86.8817 199.246 86.8817Z" fill="#3DA5D9"/>
<path d="M265.202 110.613H255.549C254.056 110.613 252.624 110.019 251.568 108.963C250.512 107.907 249.919 106.475 249.919 104.982C249.919 103.488 250.512 102.056 251.568 101C252.624 99.9438 254.056 99.3505 255.549 99.3505H265.202C266.695 99.3505 268.127 99.9438 269.183 101C270.239 102.056 270.832 103.488 270.832 104.982C270.832 106.475 270.239 107.907 269.183 108.963C268.127 110.019 266.695 110.613 265.202 110.613Z" fill="#3DA5D9"/>
<path d="M295.767 110.613H286.115C284.622 110.613 283.189 110.019 282.133 108.963C281.078 107.907 280.484 106.475 280.484 104.982C280.484 103.488 281.078 102.056 282.133 101C283.189 99.9438 284.622 99.3505 286.115 99.3505H295.767C297.26 99.3505 298.692 99.9438 299.748 101C300.804 102.056 301.397 103.488 301.397 104.982C301.397 106.475 300.804 107.907 299.748 108.963C298.692 110.019 297.26 110.613 295.767 110.613Z" fill="#3DA5D9"/>
<path d="M326.332 110.613H316.68C315.187 110.613 313.755 110.019 312.699 108.963C311.643 107.907 311.05 106.475 311.05 104.982C311.05 103.488 311.643 102.056 312.699 101C313.755 99.9438 315.187 99.3505 316.68 99.3505H326.332C327.826 99.3505 329.258 99.9438 330.314 101C331.37 102.056 331.963 103.488 331.963 104.982C331.963 106.475 331.37 107.907 330.314 108.963C329.258 110.019 327.826 110.613 326.332 110.613Z" fill="#3DA5D9"/>
<path d="M266.006 87.284H220.962C219.469 87.284 218.037 86.6907 216.981 85.6346C215.925 84.5786 215.332 83.1463 215.332 81.6529C215.332 80.1594 215.925 78.7271 216.981 77.6711C218.037 76.6151 219.469 76.0218 220.962 76.0218H266.006C267.499 76.0218 268.931 76.6151 269.987 77.6711C271.043 78.7271 271.636 80.1594 271.636 81.6529C271.636 83.1463 271.043 84.5786 269.987 85.6346C268.931 86.6907 267.499 87.284 266.006 87.284Z" fill="#3DA5D9"/>
<path d="M234.637 109.808H189.593C188.1 109.808 186.668 109.215 185.612 108.159C184.556 107.103 183.963 105.671 183.963 104.177C183.963 102.684 184.556 101.251 185.612 100.195C186.668 99.1394 188.1 98.5461 189.593 98.5461H234.637C236.13 98.5461 237.562 99.1394 238.618 100.195C239.674 101.251 240.267 102.684 240.267 104.177C240.267 105.671 239.674 107.103 238.618 108.159C237.562 109.215 236.13 109.808 234.637 109.808Z" fill="#3DA5D9"/>
<path d="M323.115 87.284H288.528C287.035 87.284 285.602 86.6907 284.547 85.6346C283.491 84.5786 282.897 83.1463 282.897 81.6529C282.897 80.1594 283.491 78.7271 284.547 77.6711C285.602 76.6151 287.035 76.0218 288.528 76.0218H323.115C324.608 76.0218 326.04 76.6151 327.096 77.6711C328.152 78.7271 328.745 80.1594 328.745 81.6529C328.745 83.1463 328.152 84.5786 327.096 85.6346C326.04 86.6907 324.608 87.284 323.115 87.284Z" fill="#3DA5D9"/>
<path d="M199.246 134.344H189.593C188.1 134.344 186.668 133.75 185.612 132.694C184.556 131.638 183.963 130.206 183.963 128.713C183.963 127.219 184.556 125.787 185.612 124.731C186.668 123.675 188.1 123.082 189.593 123.082H199.246C200.739 123.082 202.171 123.675 203.227 124.731C204.283 125.787 204.876 127.219 204.876 128.713C204.876 130.206 204.283 131.638 203.227 132.694C202.171 133.75 200.739 134.344 199.246 134.344Z" fill="#3DA5D9"/>
<path d="M266.006 134.746H220.962C219.469 134.746 218.037 134.153 216.981 133.097C215.925 132.041 215.332 130.608 215.332 129.115C215.332 127.621 215.925 126.189 216.981 125.133C218.037 124.077 219.469 123.484 220.962 123.484H266.006C267.499 123.484 268.931 124.077 269.987 125.133C271.043 126.189 271.636 127.621 271.636 129.115C271.636 130.608 271.043 132.041 269.987 133.097C268.931 134.153 267.499 134.746 266.006 134.746Z" fill="#3DA5D9"/>
<path d="M323.115 134.746H288.528C287.035 134.746 285.602 134.153 284.547 133.097C283.491 132.041 282.897 130.608 282.897 129.115C282.897 127.621 283.491 126.189 284.547 125.133C285.602 124.077 287.035 123.484 288.528 123.484H323.115C324.608 123.484 326.04 124.077 327.096 125.133C328.152 126.189 328.745 127.621 328.745 129.115C328.745 130.608 328.152 132.041 327.096 133.097C326.04 134.153 324.608 134.746 323.115 134.746Z" fill="#3DA5D9"/>
<path d="M307.832 153.65C307.834 152.157 308.427 150.726 309.483 149.67C310.539 148.615 311.97 148.021 313.462 148.019H323.115C324.608 148.019 326.04 148.612 327.096 149.668C328.152 150.725 328.745 152.157 328.745 153.65C328.745 155.144 328.152 156.576 327.096 157.632C326.04 158.688 324.608 159.281 323.115 159.281H313.462C311.97 159.28 310.539 158.686 309.483 157.63C308.427 156.575 307.834 155.143 307.832 153.65Z" fill="#3DA5D9"/>
<path d="M241.071 154.052C241.073 152.56 241.667 151.128 242.722 150.073C243.778 149.017 245.209 148.423 246.702 148.421H291.745C293.238 148.421 294.671 149.015 295.727 150.071C296.782 151.127 297.376 152.559 297.376 154.052C297.376 155.546 296.782 156.978 295.727 158.034C294.671 159.09 293.238 159.684 291.745 159.684H246.702C245.209 159.682 243.778 159.088 242.722 158.032C241.667 156.977 241.073 155.545 241.071 154.052Z" fill="#3DA5D9"/>
<path d="M183.963 154.052C183.965 152.56 184.558 151.128 185.614 150.073C186.669 149.017 188.101 148.423 189.593 148.421H224.18C225.674 148.421 227.106 149.015 228.162 150.071C229.218 151.127 229.811 152.559 229.811 154.052C229.811 155.546 229.218 156.978 228.162 158.034C227.106 159.09 225.674 159.684 224.18 159.684H189.593C188.101 159.682 186.669 159.088 185.614 158.032C184.558 156.977 183.965 155.545 183.963 154.052Z" fill="#3DA5D9"/>
</g>
<defs>
<clipPath id="clip0_61_267">
<rect width="555" height="361" fill="white"/>
</clipPath>
</defs>
</svg>
